<svg width="16" height="15" viewBox="0 0 16 15" fill="none" xmlns="http://www.w3.org/2000/svg">
<path fill-rule="evenodd" clip-rule="evenodd" d="M10 9C10.9946 9 11.9484 9.39509 12.6516 10.0983C13.3549 10.8016 13.75 11.7554 13.75 12.75V14.25C13.75 14.4489 13.671 14.6397 13.5303 14.7803C13.3897 14.921 13.1989 15 13 15C12.8011 15 12.6103 14.921 12.4697 14.7803C12.329 14.6397 12.25 14.4489 12.25 14.25V12.75C12.25 12.1533 12.0129 11.581 11.591 11.159C11.169 10.7371 10.5967 10.5 10 10.5H4C3.40326 10.5 2.83097 10.7371 2.40901 11.159C1.98705 11.581 1.75 12.1533 1.75 12.75V14.25C1.75 14.4489 1.67098 14.6397 1.53033 14.7803C1.38968 14.921 1.19891 15 1 15C0.801088 15 0.610322 14.921 0.46967 14.7803C0.329018 14.6397 0.25 14.4489 0.25 14.25V12.75C0.25 11.7554 0.645088 10.8016 1.34835 10.0983C2.05161 9.39509 3.00544 9 4 9H10ZM13 4.5C13.1989 4.5 13.3897 4.57902 13.5303 4.71967C13.671 4.86032 13.75 5.05109 13.75 5.25V6H14.5C14.6989 6 14.8897 6.07902 15.0303 6.21967C15.171 6.36032 15.25 6.55109 15.25 6.75C15.25 6.94891 15.171 7.13968 15.0303 7.28033C14.8897 7.42098 14.6989 7.5 14.5 7.5H13.75V8.25C13.75 8.44891 13.671 8.63968 13.5303 8.78033C13.3897 8.92098 13.1989 9 13 9C12.8011 9 12.6103 8.92098 12.4697 8.78033C12.329 8.63968 12.25 8.44891 12.25 8.25V7.5H11.5C11.3011 7.5 11.1103 7.42098 10.9697 7.28033C10.829 7.13968 10.75 6.94891 10.75 6.75C10.75 6.55109 10.829 6.36032 10.9697 6.21967C11.1103 6.07902 11.3011 6 11.5 6H12.25V5.25C12.25 5.05109 12.329 4.86032 12.4697 4.71967C12.6103 4.57902 12.8011 4.5 13 4.5ZM7 0C7.99456 0 8.94839 0.395088 9.65165 1.09835C10.3549 1.80161 10.75 2.75544 10.75 3.75C10.75 4.74456 10.3549 5.69839 9.65165 6.40165C8.94839 7.10491 7.99456 7.5 7 7.5C6.00544 7.5 5.05161 7.10491 4.34835 6.40165C3.64509 5.69839 3.25 4.74456 3.25 3.75C3.25 2.75544 3.64509 1.80161 4.34835 1.09835C5.05161 0.395088 6.00544 0 7 0ZM7 1.5C6.70453 1.5 6.41194 1.5582 6.13896 1.67127C5.86598 1.78434 5.61794 1.95008 5.40901 2.15901C5.20008 2.36794 5.03434 2.61598 4.92127 2.88896C4.8082 3.16194 4.75 3.45453 4.75 3.75C4.75 4.04547 4.8082 4.33805 4.92127 4.61104C5.03434 4.88402 5.20008 5.13206 5.40901 5.34099C5.61794 5.54992 5.86598 5.71566 6.13896 5.82873C6.41194 5.9418 6.70453 6 7 6C7.59674 6 8.16903 5.76295 8.59099 5.34099C9.01295 4.91903 9.25 4.34674 9.25 3.75C9.25 3.15326 9.01295 2.58097 8.59099 2.15901C8.16903 1.73705 7.59674 1.5 7 1.5Z" fill="white"/>
</svg>
