<svg width="22" height="25" viewBox="0 0 22 25" fill="none" xmlns="http://www.w3.org/2000/svg">
<path d="M19.2154 21.8183H2.40192V8.60769H19.2154M15.6125 0.200958V2.60288H6.00481V0.200958H3.60288V2.60288H2.40192C1.06886 2.60288 0 3.67174 0 5.0048V21.8183C0 22.4553 0.253059 23.0662 0.703507 23.5167C1.15395 23.9671 1.76489 24.2202 2.40192 24.2202H19.2154C19.8524 24.2202 20.4633 23.9671 20.9138 23.5167C21.3642 23.0662 21.6173 22.4553 21.6173 21.8183V5.0048C21.6173 4.36777 21.3642 3.75683 20.9138 3.30639C20.4633 2.85594 19.8524 2.60288 19.2154 2.60288H18.0144V0.200958M16.8135 13.4115H10.8087V19.4163H16.8135V13.4115Z" fill="white"/>
</svg>
