<svg width="23" height="24" viewBox="0 0 23 24" fill="none" xmlns="http://www.w3.org/2000/svg">
<path d="M11.209 11.8135C9.66774 11.8135 8.34835 11.2647 7.2508 10.1671C6.15326 9.0696 5.60449 7.75021 5.60449 6.20898C5.60449 4.66774 6.15326 3.34836 7.2508 2.25081C8.34835 1.15326 9.66774 0.604492 11.209 0.604492C12.7502 0.604492 14.0696 1.15326 15.1671 2.25081C16.2647 3.34836 16.8135 4.66774 16.8135 6.20898C16.8135 7.75021 16.2647 9.0696 15.1671 10.1671C14.0696 11.2647 12.7502 11.8135 11.209 11.8135ZM0 23.0224V19.0993C0 18.3053 0.204564 17.5758 0.613691 16.9107C1.02282 16.2457 1.56552 15.7375 2.24179 15.3863C3.68962 14.6624 5.1608 14.1197 6.65533 13.7582C8.14986 13.3967 9.66774 13.2155 11.209 13.2146C12.7502 13.2136 14.2681 13.3949 15.7626 13.7582C17.2571 14.1216 18.7283 14.6643 20.1761 15.3863C20.8534 15.7366 21.3965 16.2447 21.8057 16.9107C22.2148 17.5767 22.4189 18.3063 22.4179 19.0993V23.0224H0ZM2.80224 20.2202H19.6157V19.0993C19.6157 18.8424 19.5517 18.6089 19.4237 18.3987C19.2958 18.1886 19.1262 18.0251 18.9151 17.9083C17.6541 17.2778 16.3814 16.8052 15.0971 16.4904C13.8127 16.1756 12.5167 16.0178 11.209 16.0168C9.90126 16.0159 8.60522 16.1738 7.32086 16.4904C6.0365 16.8071 4.76381 17.2797 3.5028 17.9083C3.29263 18.0251 3.1231 18.1886 2.9942 18.3987C2.86529 18.6089 2.80131 18.8424 2.80224 19.0993V20.2202ZM11.209 9.01122C11.9796 9.01122 12.6395 8.73707 13.1888 8.18876C13.738 7.64046 14.0121 6.98053 14.0112 6.20898C14.0103 5.43743 13.7361 4.77797 13.1888 4.23059C12.6414 3.68322 11.9815 3.4086 11.209 3.40673C10.4365 3.40487 9.77702 3.67949 9.23059 4.23059C8.68415 4.7817 8.40953 5.44116 8.40673 6.20898C8.40392 6.97679 8.67855 7.63672 9.23059 8.18876C9.78263 8.7408 10.4421 9.01496 11.209 9.01122Z" fill="white"/>
</svg>
