<svg width="30" height="32" viewBox="0 0 30 32" fill="none" xmlns="http://www.w3.org/2000/svg">
<path fill-rule="evenodd" clip-rule="evenodd" d="M3.23027 11.6667C3.23027 8.57247 4.45943 5.60501 6.64736 3.41709C8.83528 1.22916 11.8027 0 14.8969 0C17.9911 0 20.9586 1.22916 23.1465 3.41709C25.3344 5.60501 26.5636 8.57247 26.5636 11.6667V17.94L29.6003 24.0133C29.7401 24.2929 29.8061 24.6035 29.792 24.9157C29.778 25.2279 29.6844 25.5314 29.52 25.7972C29.3557 26.0631 29.1262 26.2825 28.8532 26.4347C28.5802 26.5869 28.2728 26.6667 27.9603 26.6667H21.3536C20.9829 28.0971 20.1477 29.3639 18.979 30.2682C17.8104 31.1726 16.3746 31.6632 14.8969 31.6632C13.4193 31.6632 11.9834 31.1726 10.8148 30.2682C9.64622 29.3639 8.811 28.0971 8.44027 26.6667H1.83361C1.52107 26.6667 1.21371 26.5869 0.940716 26.4347C0.667725 26.2825 0.438168 26.0631 0.273846 25.7972C0.109525 25.5314 0.0158962 25.2279 0.00185215 24.9157C-0.0121919 24.6035 0.0538154 24.2929 0.193605 24.0133L3.23027 17.94V11.6667ZM12.0103 26.6667C12.3028 27.1734 12.7236 27.5941 13.2303 27.8867C13.7371 28.1792 14.3118 28.3332 14.8969 28.3332C15.482 28.3332 16.0568 28.1792 16.5635 27.8867C17.0702 27.5941 17.491 27.1734 17.7836 26.6667H12.0103ZM14.8969 3.33333C12.6868 3.33333 10.5672 4.21131 9.00438 5.77411C7.44158 7.33691 6.5636 9.45653 6.5636 11.6667V17.94C6.56357 18.4572 6.44317 18.9673 6.21194 19.43L4.26194 23.3333H25.5336L23.5836 19.43C23.3518 18.9675 23.2308 18.4574 23.2303 17.94V11.6667C23.2303 9.45653 22.3523 7.33691 20.7895 5.77411C19.2267 4.21131 17.1071 3.33333 14.8969 3.33333Z" fill="#227FAA"/>
</svg>
