<svg width="26" height="22" viewBox="0 0 26 22" fill="none" xmlns="http://www.w3.org/2000/svg">
<path d="M3.63956 21.5589H21.8126C24.2347 21.5589 25.4522 20.2662 25.4522 17.6798V4.33302C25.4522 1.74659 24.2347 0.440521 21.8126 0.440521H3.63956C1.21747 0.440521 0 1.74659 0 4.33302V17.6798C0 20.2662 1.21698 21.5589 3.63956 21.5589ZM1.86626 4.44659C1.86626 3.14052 2.51555 2.46284 3.67418 2.46284H21.7894C22.9366 2.46284 23.5859 3.14052 23.5859 4.44659V5.50088H1.86626V4.44659ZM3.67418 19.5387C2.51505 19.5387 1.86626 18.8728 1.86626 17.5673V8.35088H23.5859V17.5668C23.5859 18.8723 22.9366 19.5382 21.7894 19.5382L3.67418 19.5387ZM5.00687 15.8214H7.84681C8.53071 15.8214 8.98269 15.3318 8.98269 14.6161V12.2932C8.98269 11.5903 8.53071 11.0878 7.84681 11.0878H5.00687C4.32297 11.0878 3.87099 11.5903 3.87099 12.2932V14.6161C3.87099 15.3318 4.32297 15.8214 5.00687 15.8214Z" fill="white"/>
</svg>
