<svg width="34" height="34" viewBox="0 0 34 34" fill="none" xmlns="http://www.w3.org/2000/svg">
<path d="M22.0676 18.2146C22.0676 17.9359 21.9569 17.6686 21.7598 17.4715C21.5628 17.2745 21.2955 17.1638 21.0168 17.1638H12.61C12.3313 17.1638 12.0641 17.2745 11.867 17.4715C11.6699 17.6686 11.5592 17.9359 11.5592 18.2146C11.5592 18.4933 11.6699 18.7606 11.867 18.9577C12.0641 19.1547 12.3313 19.2654 12.61 19.2654H21.0168C21.2955 19.2654 21.5628 19.1547 21.7598 18.9577C21.9569 18.7606 22.0676 18.4933 22.0676 18.2146ZM22.0676 23.8191C22.0676 23.5404 21.9569 23.2731 21.7598 23.076C21.5628 22.879 21.2955 22.7682 21.0168 22.7682H12.61C12.3313 22.7682 12.0641 22.879 11.867 23.076C11.6699 23.2731 11.5592 23.5404 11.5592 23.8191C11.5592 24.0978 11.6699 24.3651 11.867 24.5621C12.0641 24.7592 12.3313 24.8699 12.61 24.8699H21.0168C21.2955 24.8699 21.5628 24.7592 21.7598 24.5621C21.9569 24.3651 22.0676 24.0978 22.0676 23.8191Z" fill="white"/>
<path fill-rule="evenodd" clip-rule="evenodd" d="M9.8078 3.15253C8.78589 3.15253 7.80585 3.55848 7.08325 4.28107C6.36066 5.00366 5.95471 5.98371 5.95471 7.00561V26.6213C5.95471 27.6432 6.36066 28.6233 7.08325 29.3458C7.80585 30.0684 8.78589 30.4744 9.8078 30.4744H23.819C24.8409 30.4744 25.821 30.0684 26.5436 29.3458C27.2661 28.6233 27.6721 27.6432 27.6721 26.6213V11.1641C27.6721 10.6303 27.4984 10.1119 27.1761 9.68596L22.9755 4.12631C22.747 3.82383 22.4514 3.57847 22.112 3.4095C21.7726 3.24054 21.3987 3.15258 21.0196 3.15253H9.8078ZM8.05639 7.00561C8.05639 6.03884 8.84102 5.25421 9.8078 5.25421H19.9659V11.4149C19.9659 11.995 20.4367 12.4658 21.0168 12.4658H25.5704V26.6213C25.5704 27.5881 24.7858 28.3727 23.819 28.3727H9.8078C8.84102 28.3727 8.05639 27.5881 8.05639 26.6213V7.00561Z" fill="white"/>
</svg>
